<?xml version="1.0" ?><!DOCTYPE svg  PUBLIC '-//W3C//DTD SVG 1.1//EN'  'http://www.w3.org/Graphics/SVG/1.1/DTD/svg11.dtd'><svg enable-background="new 0 0 100 100" height="100px" version="1.1" viewBox="0 0 100 100" width="100px" xml:space="preserve" xmlns="http://www.w3.org/2000/svg" xmlns:xlink="http://www.w3.org/1999/xlink"><g id="color_x5F_fill"><path d="M40.379,80.621c1.842-1.677,2.437-4.918,3.095-7.201c0.608-2.111,2.055-8.002,2.34-10.115   c2.143,4.371,7.407,4.889,11.848,4.643c6.619-0.366,13.398-5.241,16.019-11.226c2.362-5.395,4.064-11.963,3.477-17.878   c-0.453-4.562-2.69-10.156-6.038-13.438c-2.549-2.498-5.896-4.468-8.957-5.955c-3.818-1.854-9.06-2-13.133-1.656   c-2.486,0.21-4.826,0.575-7.215,1.403c-2.115,0.734-3.997,2.049-6.027,3.066c-1.906,0.955-3.552,1.896-4.912,3.369   c-1.457,1.575-2.902,3.477-4.21,5.158c-1.553,1.998-2.204,4.437-3.132,6.885c-0.824,2.178-0.988,4.984-0.618,7.375   c0.653,4.213,2.024,7.953,5.22,10.899c1.117,1.03,3.402,3.562,4.905,2.277c1.491-1.274,1.585-4.838,0.75-6.335   c-0.9-1.617-2.54-2.891-2.753-4.823c-0.624-5.656,1.153-11.761,4.777-16.144c6-7.253,18.488-8.483,25.97-2.912   c3.132,2.332,5.138,5.89,5.503,9.781c0.371,3.963,0.592,8.756-1.003,12.481c-1.044,2.44-2.482,4.928-4.077,7.052   c-1.633,2.176-4.394,3.658-7.116,3.676c-3.751,0.023-4.722-2.388-7.035-4.74c0.718-1.421,1.071-3.846,1.391-5.469   c0.452-2.3,1.075-4.163,1.868-6.342c1.109-3.044,1.686-7.689-1.305-9.859c-3.291-2.389-8.127,0.041-9.998,3.195   c-1.145,1.932-1.186,4.31-1.133,6.49c0.053,2.097,0.766,4.152,0.669,6.258c-0.093,2.042-0.972,3.951-1.282,5.959   c-0.373,2.42-0.756,4.741-1.393,7.11c-1.184,4.398-4.336,13.403-2.861,17.287C35.138,83.861,39.376,81.534,40.379,80.621z" fill="currentColor"/></g><g id="offset_x5F_print_x5F_outline"/></svg>